<svg width="26" height="26" viewBox="0 0 26 26" fill="none" xmlns="http://www.w3.org/2000/svg">
<path d="M0 2.93533C0 1.32737 1.32737 0 2.93533 0H22.5022C24.1101 0 25.4375 1.32737 25.4375 2.93533V11.8307C25.4326 12.6076 25.1218 13.3512 24.5723 13.9004C24.0228 14.4496 23.279 14.7601 22.5022 14.7645H2.93533C2.15821 14.7601 1.41418 14.4494 0.864658 13.8999C0.315138 13.3504 0.00445123 12.6063 0 11.8292V2.93533ZM18.6773 12.452V10.0501C18.6726 9.88641 18.6055 9.73068 18.4897 9.61487C18.3739 9.49906 18.2182 9.43195 18.0545 9.42729H7.38304C7.2196 9.43234 7.06426 9.49962 6.94877 9.61539C6.83329 9.73116 6.76639 9.88667 6.76175 10.0501V12.452H18.6773ZM7.3815 16.8967C7.68816 16.8967 7.98225 17.0185 8.19909 17.2353C8.41593 17.4522 8.53775 17.7463 8.53775 18.0529C8.53775 19.0165 8.51617 20.35 8.06754 21.4523C7.82724 22.0809 7.41081 22.6268 6.86812 23.0248C6.26996 23.4518 5.54229 23.6569 4.71442 23.6569C4.40776 23.6569 4.11366 23.5351 3.89682 23.3182C3.67999 23.1014 3.55817 22.8073 3.55817 22.5006C3.55817 22.194 3.67999 21.8999 3.89682 21.683C4.11366 21.4662 4.40776 21.3444 4.71442 21.3444C5.15071 21.3444 5.38812 21.2411 5.52687 21.1424C5.67179 21.0391 5.809 20.8695 5.92462 20.5828C6.179 19.9569 6.22525 19.0658 6.22525 18.0545C6.22525 17.7478 6.34707 17.4537 6.56391 17.2369C6.78075 17.02 7.07484 16.8982 7.3815 16.8982M12.7187 16.8982C13.0254 16.8982 13.3195 17.02 13.5363 17.2369C13.7532 17.4537 13.875 17.7478 13.875 18.0545V24.2812C13.875 24.5879 13.7532 24.882 13.5363 25.0988C13.3195 25.3157 13.0254 25.4375 12.7187 25.4375C12.4121 25.4375 12.118 25.3157 11.9012 25.0988C11.6843 24.882 11.5625 24.5879 11.5625 24.2812V18.0545C11.5625 17.7478 11.6843 17.4537 11.9012 17.2369C12.118 17.02 12.4121 16.8982 12.7187 16.8982ZM18.0545 16.8982C18.3611 16.8982 18.6552 17.02 18.8721 17.2369C19.0889 17.4537 19.2107 17.7478 19.2107 18.0545C19.2107 19.0673 19.257 19.9584 19.5129 20.5843C19.6285 20.8711 19.7657 21.0407 19.9106 21.144C20.0494 21.2426 20.2868 21.3459 20.7231 21.3459C21.0297 21.3459 21.3238 21.4677 21.5407 21.6846C21.7575 21.9014 21.8793 22.1955 21.8793 22.5022C21.8793 22.8088 21.7575 23.1029 21.5407 23.3198C21.3238 23.5366 21.0297 23.6584 20.7231 23.6584C19.8952 23.6584 19.166 23.4534 18.5694 23.0263C18.0267 22.6284 17.6103 22.0824 17.37 21.4538C16.9229 20.3515 16.8982 19.018 16.8982 18.0545C16.8982 17.7478 17.02 17.4537 17.2369 17.2369C17.4537 17.02 17.7478 16.8982 18.0545 16.8982Z" fill="white"/>
</svg>
