<svg width="53" height="69" viewBox="0 0 53 69" fill="none" xmlns="http://www.w3.org/2000/svg" class="hover-svg">
  <path
    d="M34.5057 58.8763H18.2583M34.5057 58.8763C34.5057 56.5595 34.5057 55.3994 34.6291 54.6293C35.0288 52.15 35.0971 51.9907 36.6795 50.0411C37.1702 49.4367 38.9899 47.8054 42.6326 44.543C45.1905 42.2598 47.2364 39.4612 48.6359 36.3312C50.0355 33.2011 50.7569 29.8104 50.753 26.3817C50.755 23.6147 50.2858 20.8676 49.3654 18.2581M34.5057 58.8763C34.5057 61.9146 34.5057 63.4321 33.8525 64.5629C33.4247 65.3038 32.8095 65.9191 32.0686 66.3469C30.9377 67 29.4202 67 26.382 67C23.3438 67 21.8263 67 20.6954 66.3469C19.9545 65.9191 19.3393 65.3038 18.9115 64.5629C18.2583 63.4321 18.2583 61.9146 18.2583 58.8763M18.2583 58.8763C18.2583 56.5595 18.2583 55.3994 18.1349 54.6293C17.7352 52.15 17.6669 51.9907 16.0845 50.0411C15.5938 49.4367 13.7708 47.8054 10.1314 44.543C5.63559 40.5252 2.78872 34.9835 2.14106 28.9888C1.4934 22.9942 3.09093 16.9723 6.62489 12.087C10.1588 7.20165 15.3783 3.79981 21.2745 2.53891C27.1707 1.278 33.325 2.24758 38.548 5.26023"
    stroke="white"
    stroke-width="3"
    stroke-linecap="round"
    class="path-animation"
  />
  <path
    d="M28.9361 23.1328L21.9725 32.8812H31.7209L24.7573 42.6296"
    stroke="white"
    stroke-width="3"
    stroke-linecap="round"
    stroke-linejoin="round"
    class="path-animation"
  />
</svg>
