<svg width="380" height="28" viewBox="0 0 380 28" fill="none" xmlns="http://www.w3.org/2000/svg">
<rect x="191" width="189" height="28" rx="4" fill="#1A1628"/>
<rect width="189" height="28" rx="4" fill="#EBFF57"/>
<path d="M85.752 17.042H80.652L79.785 20H78.255L81.859 8.1H84.545L88.149 20H86.619L85.752 17.042ZM83.1 8.712L81.043 15.716H85.361L83.304 8.712H83.1ZM89.8882 18.776H92.9482V9.324H89.9902V8.1H94.2742V18.776H97.3342V20H89.8882V18.776ZM100.297 18.776H103.357V9.324H100.399V8.1H104.683V18.776H107.743V20H100.297V18.776Z" fill="#120F1D"/>
<path d="M240.958 8.1H247.775V9.426H242.097L241.264 13.37H246.551V14.696H240.975L239.853 20H238.425L240.958 8.1ZM254.308 18.674C253.957 19.2747 253.538 19.6883 253.05 19.915C252.574 20.1303 252.07 20.238 251.537 20.238C251.084 20.238 250.676 20.1587 250.313 20C249.951 19.83 249.645 19.5977 249.395 19.303C249.146 19.0083 248.953 18.657 248.817 18.249C248.681 17.8297 248.613 17.3707 248.613 16.872C248.613 16.158 248.715 15.4667 248.919 14.798C249.123 14.1293 249.418 13.54 249.803 13.03C250.2 12.52 250.687 12.112 251.265 11.806C251.843 11.4887 252.512 11.33 253.271 11.33C253.849 11.33 254.342 11.466 254.75 11.738C255.158 11.9987 255.425 12.384 255.549 12.894H255.753L256.025 11.568H257.351L255.855 18.572C255.833 18.674 255.844 18.7533 255.889 18.81C255.935 18.8553 255.997 18.878 256.076 18.878C256.156 18.878 256.235 18.8497 256.314 18.793L256.926 18.351L257.64 19.354L256.875 19.932C256.751 20.0227 256.592 20.0963 256.399 20.153C256.218 20.2097 256.031 20.238 255.838 20.238C255.668 20.238 255.504 20.2153 255.345 20.17C255.187 20.1247 255.039 20.0567 254.903 19.966C254.779 19.864 254.677 19.7393 254.597 19.592C254.518 19.4333 254.478 19.2407 254.478 19.014C254.478 18.9573 254.478 18.9007 254.478 18.844C254.49 18.7873 254.501 18.7307 254.512 18.674H254.308ZM251.945 18.98C252.399 18.98 252.824 18.878 253.22 18.674C253.628 18.4587 253.98 18.1697 254.274 17.807C254.58 17.4443 254.818 17.0193 254.988 16.532C255.158 16.0333 255.243 15.495 255.243 14.917C255.243 14.2143 255.085 13.6533 254.767 13.234C254.45 12.8033 253.957 12.588 253.288 12.588C252.756 12.588 252.285 12.7013 251.877 12.928C251.481 13.1547 251.141 13.4607 250.857 13.846C250.574 14.22 250.359 14.6563 250.211 15.155C250.075 15.6537 250.007 16.1693 250.007 16.702C250.007 17.45 250.172 18.0167 250.5 18.402C250.829 18.7873 251.311 18.98 251.945 18.98ZM263.119 19.388H263.323L267.267 11.568L268.508 12.197L264.428 20H261.844L261.198 12.894C261.176 12.7127 261.079 12.622 260.909 12.622C260.785 12.622 260.683 12.673 260.603 12.775L259.77 13.829L258.818 13.064L259.634 12.01C259.816 11.7833 260.025 11.6133 260.263 11.5C260.501 11.3867 260.745 11.33 260.994 11.33C261.368 11.33 261.703 11.449 261.997 11.687C262.303 11.925 262.479 12.282 262.524 12.758L263.119 19.388ZM274.821 11.33C275.308 11.33 275.761 11.415 276.181 11.585C276.6 11.755 276.963 11.993 277.269 12.299C277.575 12.605 277.813 12.9733 277.983 13.404C278.164 13.8233 278.255 14.288 278.255 14.798C278.255 15.5007 278.136 16.1807 277.898 16.838C277.671 17.484 277.331 18.062 276.878 18.572C276.436 19.0707 275.886 19.473 275.229 19.779C274.583 20.085 273.846 20.238 273.019 20.238C272.543 20.238 272.095 20.1587 271.676 20C271.256 19.83 270.888 19.5977 270.571 19.303C270.265 19.0083 270.021 18.6513 269.84 18.232C269.658 17.8013 269.568 17.3253 269.568 16.804C269.568 15.988 269.704 15.2457 269.976 14.577C270.259 13.897 270.639 13.319 271.115 12.843C271.602 12.367 272.163 11.9987 272.798 11.738C273.432 11.466 274.107 11.33 274.821 11.33ZM273.308 18.98C273.829 18.98 274.311 18.8667 274.753 18.64C275.195 18.402 275.574 18.096 275.892 17.722C276.209 17.3367 276.453 16.9003 276.623 16.413C276.804 15.9257 276.895 15.4213 276.895 14.9C276.895 14.2313 276.685 13.6817 276.266 13.251C275.858 12.809 275.28 12.588 274.532 12.588C274.044 12.588 273.585 12.6957 273.155 12.911C272.724 13.1263 272.344 13.421 272.016 13.795C271.698 14.169 271.443 14.6053 271.251 15.104C271.058 15.5913 270.962 16.1127 270.962 16.668C270.962 17.348 271.166 17.9033 271.574 18.334C271.982 18.7647 272.56 18.98 273.308 18.98ZM282.935 13.03C282.969 12.894 282.952 12.792 282.884 12.724C282.816 12.6447 282.731 12.605 282.629 12.605C282.538 12.605 282.453 12.6333 282.374 12.69L280.827 13.744L280.147 12.741L281.66 11.721C282.045 11.4603 282.436 11.33 282.833 11.33C283.184 11.33 283.49 11.432 283.751 11.636C284.011 11.8287 284.159 12.146 284.193 12.588H284.397C284.725 12.1233 285.094 11.8003 285.502 11.619C285.91 11.4263 286.335 11.33 286.777 11.33C287.593 11.33 288.233 11.568 288.698 12.044C289.162 12.5087 289.395 13.1263 289.395 13.897C289.395 14.1917 289.361 14.492 289.293 14.798L287.848 14.9C287.904 14.6167 287.933 14.3787 287.933 14.186C287.933 13.642 287.78 13.2397 287.474 12.979C287.179 12.7183 286.794 12.588 286.318 12.588C285.978 12.588 285.666 12.656 285.383 12.792C285.111 12.9167 284.873 13.0923 284.669 13.319C284.465 13.5343 284.289 13.7893 284.142 14.084C284.006 14.3787 283.904 14.6847 283.836 15.002L283.037 18.776H285.043V20H279.637V18.776H281.711L282.935 13.03ZM295.197 9.052C295.197 8.72333 295.31 8.44567 295.537 8.219C295.775 7.981 296.058 7.862 296.387 7.862C296.716 7.862 296.993 7.981 297.22 8.219C297.458 8.44567 297.577 8.72333 297.577 9.052C297.577 9.38067 297.458 9.664 297.22 9.902C296.993 10.1287 296.716 10.242 296.387 10.242C296.058 10.242 295.775 10.1287 295.537 9.902C295.31 9.664 295.197 9.38067 295.197 9.052ZM294.925 13.047C294.948 12.9337 294.931 12.8373 294.874 12.758C294.829 12.6673 294.744 12.622 294.619 12.622C294.528 12.622 294.443 12.6447 294.364 12.69L292.375 14.05L291.695 13.047L293.701 11.687C294.052 11.449 294.432 11.33 294.84 11.33C295.225 11.33 295.56 11.4433 295.843 11.67C296.126 11.8967 296.268 12.248 296.268 12.724C296.268 12.9053 296.245 13.0867 296.2 13.268L294.942 18.521C294.908 18.657 294.919 18.7647 294.976 18.844C295.044 18.9233 295.129 18.963 295.231 18.963C295.31 18.963 295.395 18.9347 295.486 18.878L297.441 17.552L298.121 18.555L296.166 19.881C295.803 20.119 295.424 20.238 295.027 20.238C294.642 20.238 294.307 20.1247 294.024 19.898C293.741 19.6713 293.599 19.32 293.599 18.844C293.599 18.6627 293.622 18.4813 293.667 18.3L294.925 13.047ZM301.9 11.568H304.824L305.606 7.862H306.932L306.15 11.568H309.142V12.792H305.878L304.671 18.521C304.637 18.657 304.648 18.7647 304.705 18.844C304.773 18.9233 304.858 18.963 304.96 18.963C305.039 18.963 305.124 18.9347 305.215 18.878L307.476 17.348L308.156 18.351L305.895 19.881C305.532 20.119 305.158 20.238 304.773 20.238C304.376 20.238 304.036 20.119 303.753 19.881C303.47 19.643 303.328 19.286 303.328 18.81C303.328 18.7307 303.334 18.6513 303.345 18.572C303.356 18.4813 303.373 18.3907 303.396 18.3L304.552 12.792H301.9V11.568ZM312.768 16.192C312.746 16.2827 312.729 16.3847 312.717 16.498C312.706 16.6113 312.7 16.7303 312.7 16.855C312.7 17.4783 312.882 17.994 313.244 18.402C313.607 18.7987 314.185 18.997 314.978 18.997C315.375 18.997 315.726 18.9517 316.032 18.861C316.35 18.7703 316.622 18.6457 316.848 18.487C317.075 18.317 317.268 18.13 317.426 17.926C317.596 17.7107 317.738 17.484 317.851 17.246L318.939 17.858C318.781 18.1867 318.582 18.4983 318.344 18.793C318.106 19.0763 317.823 19.3257 317.494 19.541C317.166 19.7563 316.786 19.9263 316.355 20.051C315.925 20.1757 315.432 20.238 314.876 20.238C314.366 20.238 313.896 20.1587 313.465 20C313.046 19.8527 312.683 19.6373 312.377 19.354C312.071 19.0593 311.833 18.7023 311.663 18.283C311.493 17.8637 311.408 17.3877 311.408 16.855C311.408 16.141 311.522 15.4553 311.748 14.798C311.975 14.1293 312.304 13.54 312.734 13.03C313.165 12.52 313.698 12.112 314.332 11.806C314.967 11.4887 315.687 11.33 316.491 11.33C317.058 11.33 317.551 11.4207 317.97 11.602C318.39 11.772 318.735 12.01 319.007 12.316C319.279 12.6107 319.483 12.9507 319.619 13.336C319.755 13.71 319.823 14.101 319.823 14.509C319.823 14.815 319.789 15.1097 319.721 15.393L319.534 16.192H312.768ZM316.321 12.588C315.925 12.588 315.551 12.6503 315.199 12.775C314.859 12.8883 314.548 13.0527 314.264 13.268C313.981 13.4833 313.737 13.7383 313.533 14.033C313.329 14.3163 313.171 14.628 313.057 14.968H318.463C318.497 14.7867 318.514 14.6167 318.514 14.458C318.514 13.846 318.305 13.3813 317.885 13.064C317.466 12.7467 316.945 12.588 316.321 12.588ZM326.985 12.52C326.759 12.52 326.521 12.5483 326.271 12.605C326.033 12.6617 325.812 12.7467 325.608 12.86C325.416 12.9733 325.257 13.1207 325.132 13.302C325.008 13.472 324.945 13.676 324.945 13.914C324.945 14.2767 325.104 14.5487 325.421 14.73C325.75 14.9113 326.311 15.0303 327.104 15.087C327.92 15.1437 328.549 15.3477 328.991 15.699C329.445 16.0503 329.671 16.566 329.671 17.246C329.671 17.722 329.569 18.147 329.365 18.521C329.173 18.895 328.901 19.2123 328.549 19.473C328.198 19.7223 327.779 19.9093 327.291 20.034C326.815 20.17 326.288 20.238 325.71 20.238C325.132 20.238 324.639 20.1587 324.231 20C323.835 19.8527 323.506 19.6543 323.245 19.405C322.985 19.1443 322.792 18.8553 322.667 18.538C322.554 18.2093 322.497 17.875 322.497 17.535C322.497 17.4783 322.497 17.4217 322.497 17.365C322.497 17.297 322.503 17.2347 322.514 17.178L323.84 17.008C323.829 17.0987 323.823 17.1553 323.823 17.178C323.823 17.2007 323.823 17.2347 323.823 17.28C323.823 17.5293 323.857 17.7617 323.925 17.977C324.005 18.181 324.129 18.3623 324.299 18.521C324.469 18.6683 324.69 18.7873 324.962 18.878C325.234 18.9687 325.569 19.014 325.965 19.014C326.226 19.014 326.492 18.9857 326.764 18.929C327.048 18.861 327.303 18.7647 327.529 18.64C327.756 18.504 327.943 18.3397 328.09 18.147C328.238 17.943 328.311 17.6993 328.311 17.416C328.311 16.974 328.13 16.6793 327.767 16.532C327.416 16.3733 326.889 16.2657 326.186 16.209C325.382 16.1523 324.747 15.9597 324.282 15.631C323.829 15.3023 323.602 14.7867 323.602 14.084C323.602 13.6873 323.687 13.319 323.857 12.979C324.027 12.639 324.265 12.35 324.571 12.112C324.889 11.8627 325.263 11.67 325.693 11.534C326.135 11.398 326.623 11.33 327.155 11.33C327.677 11.33 328.124 11.4037 328.498 11.551C328.884 11.687 329.195 11.8683 329.433 12.095C329.683 12.3217 329.864 12.5823 329.977 12.877C330.102 13.1603 330.164 13.455 330.164 13.761V13.948L328.855 14.135V14.067C328.855 14.0443 328.855 14.0273 328.855 14.016C328.867 13.9933 328.872 13.9707 328.872 13.948C328.872 13.5173 328.708 13.1717 328.379 12.911C328.062 12.6503 327.597 12.52 326.985 12.52Z" fill="white"/>
</svg>
