<svg width="27" height="27" viewBox="0 0 27 27" fill="none" xmlns="http://www.w3.org/2000/svg">
<path d="M7 0C5.60761 0 4.27226 0.553124 3.28769 1.53769C2.30312 2.52226 1.75 3.85761 1.75 5.25V8.75H26.25V5.25C26.25 3.85761 25.6969 2.52226 24.7123 1.53769C23.7277 0.553124 22.3924 0 21 0H7ZM21 24.5H8.60125C8.47078 24.1305 8.25925 23.7949 7.98217 23.5178C7.70509 23.2407 7.36949 23.0292 7 22.8987V20.4103C8.04743 19.9134 8.93234 19.1295 9.55191 18.1497C10.1715 17.1698 10.5002 16.0343 10.5 14.875V11.375C10.4999 11.0769 10.449 10.781 10.3495 10.5H26.25V19.25C26.25 20.6424 25.6969 21.9777 24.7123 22.9623C23.7277 23.9469 22.3924 24.5 21 24.5ZM8.3125 5.6875C8.14014 5.6875 7.96947 5.65355 7.81023 5.58759C7.65099 5.52163 7.5063 5.42495 7.38442 5.30308C7.26255 5.1812 7.16587 5.03651 7.09991 4.87727C7.03395 4.71803 7 4.54736 7 4.375C7 4.20264 7.03395 4.03197 7.09991 3.87273C7.16587 3.71349 7.26255 3.5688 7.38442 3.44692C7.5063 3.32505 7.65099 3.22837 7.81023 3.16241C7.96947 3.09645 8.14014 3.0625 8.3125 3.0625C8.6606 3.0625 8.99444 3.20078 9.24058 3.44692C9.48672 3.69306 9.625 4.0269 9.625 4.375C9.625 4.7231 9.48672 5.05694 9.24058 5.30308C8.99444 5.54922 8.6606 5.6875 8.3125 5.6875ZM14 4.375C14 4.14294 14.0922 3.92038 14.2563 3.75628C14.4204 3.59219 14.6429 3.5 14.875 3.5H20.125C20.3571 3.5 20.5796 3.59219 20.7437 3.75628C20.9078 3.92038 21 4.14294 21 4.375C21 4.60706 20.9078 4.82962 20.7437 4.99372C20.5796 5.15781 20.3571 5.25 20.125 5.25H14.875C14.6429 5.25 14.4204 5.15781 14.2563 4.99372C14.0922 4.82962 14 4.60706 14 4.375ZM0.875 10.5C0.642936 10.5 0.420376 10.5922 0.256282 10.7563C0.0921875 10.9204 9.11998e-08 11.1429 9.11998e-08 11.375V14.875C-0.000205757 15.8836 0.34806 16.8612 0.985857 17.6425C1.62365 18.4238 2.51181 18.9608 3.5 19.1625V24.5H2.625C2.39294 24.5 2.17038 24.5922 2.00628 24.7563C1.84219 24.9204 1.75 25.1429 1.75 25.375C1.75 25.6071 1.84219 25.8296 2.00628 25.9937C2.17038 26.1578 2.39294 26.25 2.625 26.25H6.125C6.35706 26.25 6.57962 26.1578 6.74372 25.9937C6.90781 25.8296 7 25.6071 7 25.375C7 25.1429 6.90781 24.9204 6.74372 24.7563C6.57962 24.5922 6.35706 24.5 6.125 24.5H5.25V19.1625C6.23819 18.9608 7.12635 18.4238 7.76414 17.6425C8.40194 16.8612 8.75021 15.8836 8.75 14.875V11.375C8.75 11.1429 8.65781 10.9204 8.49372 10.7563C8.32962 10.5922 8.10706 10.5 7.875 10.5H0.875Z" fill="white"/>
</svg>
