<svg width="22" height="25" viewBox="0 0 22 25" fill="none" xmlns="http://www.w3.org/2000/svg">
<path d="M1.20833 24.1667H20.5417C20.8621 24.1667 21.1695 24.0394 21.3961 23.8128C21.6227 23.5861 21.75 23.2788 21.75 22.9583V3.625C21.75 1.62642 20.1236 0 18.125 0H3.625C1.62642 0 0 1.62642 0 3.625V22.9583C0 23.2788 0.127306 23.5861 0.353913 23.8128C0.580519 24.0394 0.887863 24.1667 1.20833 24.1667ZM18.125 2.32483C18.2837 2.32483 18.4408 2.35609 18.5874 2.41681C18.734 2.47754 18.8672 2.56654 18.9794 2.67875C19.0916 2.79095 19.1806 2.92416 19.2414 3.07076C19.3021 3.21736 19.3333 3.37449 19.3333 3.53317C19.3333 3.69185 19.3021 3.84897 19.2414 3.99558C19.1806 4.14218 19.0916 4.27538 18.9794 4.38759C18.8672 4.49979 18.734 4.5888 18.5874 4.64952C18.4408 4.71025 18.2837 4.7415 18.125 4.7415C17.8045 4.7415 17.4972 4.61419 17.2706 4.38759C17.044 4.16098 16.9167 3.85364 16.9167 3.53317C16.9167 3.2127 17.044 2.90535 17.2706 2.67875C17.4972 2.45214 17.8045 2.32483 18.125 2.32483ZM14.5 2.32483C14.8205 2.32483 15.1278 2.45214 15.3544 2.67875C15.581 2.90535 15.7083 3.2127 15.7083 3.53317C15.7083 3.85364 15.581 4.16098 15.3544 4.38759C15.1278 4.61419 14.8205 4.7415 14.5 4.7415C14.1795 4.7415 13.8722 4.61419 13.6456 4.38759C13.419 4.16098 13.2917 3.85364 13.2917 3.53317C13.2917 3.2127 13.419 2.90535 13.6456 2.67875C13.8722 2.45214 14.1795 2.32483 14.5 2.32483ZM10.875 6.09121C14.8734 6.09121 18.125 9.34283 18.125 13.3412C18.125 17.3396 14.8734 20.5912 10.875 20.5912C6.87662 20.5912 3.625 17.3396 3.625 13.3412C3.625 9.34283 6.87662 6.09121 10.875 6.09121Z" fill="white"/>
<path d="M7.63667 12.4035C7.13521 12.8675 6.37879 13.5684 6.37879 14.9012C6.37879 16.234 7.13521 16.936 7.63667 17.4C8.062 17.7927 8.12 17.8809 8.12 18.125H10.5367C10.5367 16.791 9.78025 16.0902 9.27879 15.6262C8.85346 15.2335 8.79546 15.1453 8.79546 14.9012C8.79546 14.6571 8.85346 14.5689 9.27879 14.1762C9.77904 13.7122 10.5367 13.0113 10.5367 11.6773C10.5367 10.3445 9.78025 9.64371 9.27879 9.18092C8.85467 8.78821 8.79667 8.70121 8.79667 8.45833H6.38C6.38 9.79233 7.13762 10.492 7.63908 10.9548C8.06321 11.3463 8.12121 11.4333 8.12121 11.6761C8.12 11.9214 8.06079 12.0096 7.63667 12.4035ZM12.47 12.4035C11.9697 12.8675 11.2133 13.5684 11.2133 14.9012C11.2133 16.234 11.9697 16.936 12.47 17.3988C12.8941 17.7915 12.9521 17.8797 12.9521 18.125H15.3688C15.3688 16.791 14.6124 16.0902 14.1121 15.6274C13.688 15.2347 13.63 15.1465 13.63 14.9012C13.63 14.6559 13.6892 14.5689 14.1121 14.175C14.6124 13.711 15.3688 13.0101 15.3688 11.6761C15.3688 10.3433 14.6124 9.64371 14.1121 9.18092C13.6892 8.78942 13.63 8.70121 13.63 8.45833H11.2133C11.2133 9.79112 11.9698 10.492 12.4712 10.9548C12.8941 11.3463 12.9521 11.4345 12.9521 11.6773C12.9533 11.9214 12.8941 12.0096 12.47 12.4035Z" fill="white"/>
</svg>
