<svg width="28" height="25" viewBox="0 0 28 25" fill="none" xmlns="http://www.w3.org/2000/svg">
<path d="M3.75 9.72222H12.75V2.77778H3.75V9.72222ZM0.75 25V2.77778C0.75 2.01389 1.044 1.36019 1.632 0.816667C2.22 0.273148 2.926 0.000925926 3.75 0H12.75C13.575 0 14.2815 0.272222 14.8695 0.816667C15.4575 1.36111 15.751 2.01481 15.75 2.77778V12.5H17.625C18.35 12.5 18.969 12.7375 19.482 13.2125C19.995 13.6875 20.251 14.2602 20.25 14.9306V21.3542C20.25 21.7477 20.425 22.1065 20.775 22.4306C21.125 22.7546 21.5125 22.9167 21.9375 22.9167C22.3875 22.9167 22.7815 22.7546 23.1195 22.4306C23.4575 22.1065 23.626 21.7477 23.625 21.3542V8.33333H23.25C22.825 8.33333 22.469 8.2 22.182 7.93333C21.895 7.66667 21.751 7.33704 21.75 6.94444V4.16667H22.5V2.08333H24V4.16667H25.5V2.08333H27V4.16667H27.75V6.94444C27.75 7.33796 27.606 7.66806 27.318 7.93472C27.03 8.20139 26.674 8.33426 26.25 8.33333H25.875V21.3542C25.875 22.3264 25.4935 23.1773 24.7305 23.9069C23.9675 24.6366 23.037 25.0009 21.939 25C20.864 25 19.939 24.6352 19.164 23.9056C18.389 23.1759 18.0015 22.3255 18.0015 21.3542V14.9306C18.0015 14.8148 17.9705 14.7282 17.9085 14.6708C17.8465 14.6134 17.7525 14.5843 17.6265 14.5833H15.75V25H0.75ZM7.5 22.2222L11.25 16.6667H9V12.5L5.25 18.0556H7.5V22.2222Z" fill="white"/>
</svg>
