<svg width="31" height="31" viewBox="0 0 21 21" fill="none" xmlns="http://www.w3.org/2000/svg">
<path d="M21 10.5C21 16.299 16.299 21 10.5 21C4.70101 21 0 16.299 0 10.5C0 4.70101 4.70101 0 10.5 0C16.299 0 21 4.70101 21 10.5Z" fill="white"/>
<path d="M17.9929 10.6403C17.9929 10.0258 17.9418 9.57733 17.8314 9.11227H10.6494V11.886H14.8651C14.7801 12.5753 14.3211 13.6134 13.3012 14.311L13.2869 14.4038L15.5577 16.1227L15.715 16.1381C17.1599 14.8342 17.9929 12.9158 17.9929 10.6403Z" fill="#4285F4"/>
<path d="M10.6494 17.9485C12.7147 17.9485 14.4486 17.2841 15.715 16.1381L13.3012 14.311C12.6553 14.7511 11.7883 15.0584 10.6494 15.0584C8.62658 15.0584 6.90973 13.7546 6.29771 11.9525L6.20801 11.9599L3.8468 13.7454L3.81592 13.8293C5.07381 16.2709 7.65762 17.9485 10.6494 17.9485Z" fill="#34A853"/>
<path d="M6.29771 11.9525C6.13623 11.4874 6.04277 10.9891 6.04277 10.4742C6.04277 9.95931 6.13623 9.46105 6.28922 8.99599L6.28494 8.89695L3.89414 7.08275L3.81592 7.1191C3.29748 8.13229 3 9.27006 3 10.4742C3 11.6784 3.29748 12.8161 3.81592 13.8293L6.29771 11.9525Z" fill="#FBBC05"/>
<path d="M10.6494 5.89002C12.0858 5.89002 13.0547 6.49626 13.6072 7.00288L15.766 4.9433C14.4401 3.73912 12.7147 3 10.6494 3C7.65762 3 5.07381 4.67754 3.81592 7.1191L6.28922 8.99599C6.90973 7.19387 8.62658 5.89002 10.6494 5.89002Z" fill="#EB4335"/>
</svg>
