<svg width="25" height="25" viewBox="0 0 25 25" fill="none" xmlns="http://www.w3.org/2000/svg">
<path d="M7.93958 1.20833L6.22375 3.85458L7.93958 6.525H7.9275L5.52292 10.2708L3.4325 9.18333L5.14833 6.51292L3.4325 3.85458L5.84917 0.10875L7.93958 1.20833ZM15.1896 1.07542L13.4738 3.74583L15.1896 6.40417L15.1775 6.41625L12.7729 10.15L10.6825 9.0625L12.3983 6.40417L10.6825 3.74583L13.0992 0L15.1896 1.07542ZM22.5 1.07542L20.76 3.74583L22.5 6.40417V6.41625L20.0833 10.15L17.9688 9.0625L19.6846 6.40417L17.9688 3.74583L20.3854 0L22.5 1.07542ZM0.75 24.1667V14.5C0.75 13.8591 1.00461 13.2444 1.45783 12.7912C1.91104 12.3379 2.52573 12.0833 3.16667 12.0833H22.5C23.1409 12.0833 23.7556 12.3379 24.2088 12.7912C24.6621 13.2444 24.9167 13.8591 24.9167 14.5V24.1667H22.5V21.75H3.16667V24.1667H0.75ZM5.58333 14.5C5.26286 14.5 4.95552 14.6273 4.72891 14.8539C4.50231 15.0805 4.375 15.3879 4.375 15.7083V18.125C4.375 18.4455 4.50231 18.7528 4.72891 18.9794C4.95552 19.206 5.26286 19.3333 5.58333 19.3333C5.9038 19.3333 6.21115 19.206 6.43775 18.9794C6.66436 18.7528 6.79167 18.4455 6.79167 18.125V15.7083C6.79167 15.3879 6.66436 15.0805 6.43775 14.8539C6.21115 14.6273 5.9038 14.5 5.58333 14.5ZM10.4167 14.5C10.0962 14.5 9.78885 14.6273 9.56225 14.8539C9.33564 15.0805 9.20833 15.3879 9.20833 15.7083V18.125C9.20833 18.4455 9.33564 18.7528 9.56225 18.9794C9.78885 19.206 10.0962 19.3333 10.4167 19.3333C10.7371 19.3333 11.0445 19.206 11.2711 18.9794C11.4977 18.7528 11.625 18.4455 11.625 18.125V15.7083C11.625 15.3879 11.4977 15.0805 11.2711 14.8539C11.0445 14.6273 10.7371 14.5 10.4167 14.5ZM15.25 14.5C14.9295 14.5 14.6222 14.6273 14.3956 14.8539C14.169 15.0805 14.0417 15.3879 14.0417 15.7083V18.125C14.0417 18.4455 14.169 18.7528 14.3956 18.9794C14.6222 19.206 14.9295 19.3333 15.25 19.3333C15.5705 19.3333 15.8778 19.206 16.1044 18.9794C16.331 18.7528 16.4583 18.4455 16.4583 18.125V15.7083C16.4583 15.3879 16.331 15.0805 16.1044 14.8539C15.8778 14.6273 15.5705 14.5 15.25 14.5ZM20.0833 14.5C19.7629 14.5 19.4555 14.6273 19.2289 14.8539C19.0023 15.0805 18.875 15.3879 18.875 15.7083V18.125C18.875 18.4455 19.0023 18.7528 19.2289 18.9794C19.4555 19.206 19.7629 19.3333 20.0833 19.3333C20.4038 19.3333 20.7111 19.206 20.9378 18.9794C21.1644 18.7528 21.2917 18.4455 21.2917 18.125V15.7083C21.2917 15.3879 21.1644 15.0805 20.9378 14.8539C20.7111 14.6273 20.4038 14.5 20.0833 14.5Z" fill="white"/>
</svg>
