<svg width="38" height="43" viewBox="0 0 38 43" fill="none" xmlns="http://www.w3.org/2000/svg">
<g filter="url(#filter0_d_730_668)">
<path d="M13.5938 15.75C13.4031 15.75 13.2203 15.8257 13.0855 15.9605C12.9507 16.0953 12.875 16.2781 12.875 16.4688C12.875 16.6594 12.9507 16.8422 13.0855 16.977C13.2203 17.1118 13.4031 17.1875 13.5938 17.1875H23.6562C23.8469 17.1875 24.0297 17.1118 24.1645 16.977C24.2993 16.8422 24.375 16.6594 24.375 16.4688C24.375 16.2781 24.2993 16.0953 24.1645 15.9605C24.0297 15.8257 23.8469 15.75 23.6562 15.75H13.5938ZM12.875 19.3438C12.875 19.1531 12.9507 18.9703 13.0855 18.8355C13.2203 18.7007 13.4031 18.625 13.5938 18.625H23.6562C23.8469 18.625 24.0297 18.7007 24.1645 18.8355C24.2993 18.9703 24.375 19.1531 24.375 19.3438C24.375 19.5344 24.2993 19.7172 24.1645 19.852C24.0297 19.9868 23.8469 20.0625 23.6562 20.0625H13.5938C13.4031 20.0625 13.2203 19.9868 13.0855 19.852C12.9507 19.7172 12.875 19.5344 12.875 19.3438ZM13.5938 21.5C13.4031 21.5 13.2203 21.5757 13.0855 21.7105C12.9507 21.8453 12.875 22.0281 12.875 22.2188C12.875 22.4094 12.9507 22.5922 13.0855 22.727C13.2203 22.8618 13.4031 22.9375 13.5938 22.9375H19.3438C19.5344 22.9375 19.7172 22.8618 19.852 22.727C19.9868 22.5922 20.0625 22.4094 20.0625 22.2188C20.0625 22.0281 19.9868 21.8453 19.852 21.7105C19.7172 21.5757 19.5344 21.5 19.3438 21.5H13.5938ZM10 12.1562C10 11.5844 10.2272 11.0359 10.6316 10.6316C11.0359 10.2272 11.5844 10 12.1562 10H25.0938C25.6656 10 26.2141 10.2272 26.6184 10.6316C27.0228 11.0359 27.25 11.5844 27.25 12.1562V30.8438C27.25 31.4156 27.0228 31.9641 26.6184 32.3684C26.2141 32.7728 25.6656 33 25.0938 33H12.1562C11.5844 33 11.0359 32.7728 10.6316 32.3684C10.2272 31.9641 10 31.4156 10 30.8438V12.1562ZM12.1562 11.4375C11.9656 11.4375 11.7828 11.5132 11.648 11.648C11.5132 11.7828 11.4375 11.9656 11.4375 12.1562V30.8438C11.4375 31.0344 11.5132 31.2172 11.648 31.352C11.7828 31.4868 11.9656 31.5625 12.1562 31.5625H25.0938C25.2844 31.5625 25.4672 31.4868 25.602 31.352C25.7368 31.2172 25.8125 31.0344 25.8125 30.8438V12.1562C25.8125 11.9656 25.7368 11.7828 25.602 11.648C25.4672 11.5132 25.2844 11.4375 25.0938 11.4375H12.1562Z" fill="white"/>
</g>
<defs>
<filter id="filter0_d_730_668" x="0" y="0" width="37.25" height="43" filterUnits="userSpaceOnUse" color-interpolation-filters="sRGB">
<feFlood flood-opacity="0" result="BackgroundImageFix"/>
<feColorMatrix in="SourceAlpha" type="matrix" values="0 0 0 0 0 0 0 0 0 0 0 0 0 0 0 0 0 0 127 0" result="hardAlpha"/>
<feOffset/>
<feGaussianBlur stdDeviation="5"/>
<feComposite in2="hardAlpha" operator="out"/>
<feColorMatrix type="matrix" values="0 0 0 0 1 0 0 0 0 1 0 0 0 0 1 0 0 0 1 0"/>
<feBlend mode="normal" in2="BackgroundImageFix" result="effect1_dropShadow_730_668"/>
<feBlend mode="normal" in="SourceGraphic" in2="effect1_dropShadow_730_668" result="shape"/>
</filter>
</defs>
</svg>
