<svg width="45" height="43" viewBox="0 0 45 43" fill="none" xmlns="http://www.w3.org/2000/svg">
<g filter="url(#filter0_d_715_615)">
<path d="M16.383 26.8077H28.6169V28.5769H16.383V26.8077ZM18.1307 20.6154C17.785 20.6154 17.4471 20.7192 17.1597 20.9136C16.8723 21.108 16.6483 21.3843 16.516 21.7076C16.3837 22.0309 16.3491 22.3866 16.4165 22.7298C16.484 23.073 16.6504 23.3882 16.8949 23.6357C17.1393 23.8831 17.4507 24.0516 17.7897 24.1199C18.1287 24.1881 18.4801 24.1531 18.7995 24.0192C19.1188 23.8853 19.3918 23.6585 19.5838 23.3676C19.7759 23.0766 19.8784 22.7346 19.8784 22.3847C19.8807 22.1517 19.8371 21.9205 19.7501 21.7048C19.6631 21.4891 19.5345 21.2931 19.3717 21.1284C19.2089 20.9636 19.0153 20.8334 18.8022 20.7453C18.5892 20.6572 18.3608 20.6131 18.1307 20.6154ZM26.8692 20.6154C26.5235 20.6154 26.1856 20.7192 25.8982 20.9136C25.6108 21.108 25.3868 21.3843 25.2545 21.7076C25.1223 22.0309 25.0876 22.3866 25.1551 22.7298C25.2225 23.073 25.389 23.3882 25.6334 23.6357C25.8778 23.8831 26.1892 24.0516 26.5283 24.1199C26.8673 24.1881 27.2187 24.1531 27.538 24.0192C27.8574 23.8853 28.1303 23.6585 28.3224 23.3676C28.5144 23.0766 28.6169 22.7346 28.6169 22.3847C28.6193 22.1517 28.5756 21.9205 28.4886 21.7048C28.4016 21.4891 28.273 21.2931 28.1102 21.1284C27.9475 20.9636 27.7539 20.8334 27.5408 20.7453C27.3277 20.6572 27.0994 20.6131 26.8692 20.6154Z" fill="white"/>
<path d="M33.2143 15.3077H24.6554L26.5054 13.4748C26.6549 13.5157 26.8092 13.5371 26.9643 13.5385C27.3175 13.5385 27.6627 13.4347 27.9564 13.2403C28.25 13.0459 28.4789 12.7696 28.6141 12.4463C28.7492 12.123 28.7846 11.7673 28.7157 11.4241C28.7157 11 28.6141 10.7863 28.5 10.5C28.2503 10.2526 27.6591 10.1023 27.3127 10.034C26.9663 9.96573 26.6072 10.0008 26.2809 10.1347C25.9546 10.2686 25.6757 10.4954 25.4795 10.7863C25.2833 11.0772 25.1786 11.4193 25.1786 11.7692C25.18 11.9229 25.2016 12.0758 25.2429 12.2239L22.1304 15.3077H11.7857C11.3123 15.3084 10.8585 15.495 10.5238 15.8267C10.1891 16.1583 10.0007 16.6079 10 17.0769V31.2308C10.0007 31.6998 10.1891 32.1494 10.5238 32.481C10.8585 32.8127 11.3123 32.9993 11.7857 33H33.2143C33.6877 32.9993 34.1415 32.8127 34.4762 32.481C34.8109 32.1494 34.9993 31.6998 35 31.2308V17.0769C34.9993 16.6079 34.8109 16.1583 34.4762 15.8267C34.1415 15.495 33.6877 15.3084 33.2143 15.3077ZM11.7857 31.2308V17.0769H33.2143V31.2308H11.7857Z" fill="white"/>
</g>
<defs>
<filter id="filter0_d_715_615" x="0" y="0" width="45" height="43" filterUnits="userSpaceOnUse" color-interpolation-filters="sRGB">
<feFlood flood-opacity="0" result="BackgroundImageFix"/>
<feColorMatrix in="SourceAlpha" type="matrix" values="0 0 0 0 0 0 0 0 0 0 0 0 0 0 0 0 0 0 127 0" result="hardAlpha"/>
<feOffset/>
<feGaussianBlur stdDeviation="5"/>
<feComposite in2="hardAlpha" operator="out"/>
<feColorMatrix type="matrix" values="0 0 0 0 1 0 0 0 0 1 0 0 0 0 1 0 0 0 1 0"/>
<feBlend mode="normal" in2="BackgroundImageFix" result="effect1_dropShadow_715_615"/>
<feBlend mode="normal" in="SourceGraphic" in2="effect1_dropShadow_715_615" result="shape"/>
</filter>
</defs>
</svg>
