<svg width="22" height="24" viewBox="0 0 22 24" fill="none" xmlns="http://www.w3.org/2000/svg">
<path d="M14.3333 23.0001V13.7367C14.3333 13.4296 14.2163 13.135 14.0079 12.9179C13.7995 12.7007 13.5169 12.5787 13.2222 12.5787H8.77777C8.48308 12.5787 8.20047 12.7007 7.99209 12.9179C7.78372 13.135 7.66666 13.4296 7.66666 13.7367V23.0001" stroke="#969696" stroke-width="2" stroke-linecap="round" stroke-linejoin="round"/>
<path d="M1 10.2628C0.999923 9.92593 1.07037 9.59309 1.20643 9.28751C1.34249 8.98192 1.54089 8.71095 1.78778 8.4935L9.56556 1.5471C9.96665 1.19382 10.4748 1 11 1C11.5252 1 12.0333 1.19382 12.4344 1.5471L20.2122 8.4935C20.4591 8.71095 20.6575 8.98192 20.7936 9.28751C20.9296 9.59309 21.0001 9.92593 21 10.2628V20.6841C21 21.2983 20.7659 21.8874 20.3491 22.3217C19.9324 22.756 19.3671 23 18.7778 23H3.22222C2.63285 23 2.06762 22.756 1.65087 22.3217C1.23413 21.8874 1 21.2983 1 20.6841V10.2628Z" stroke="#969696" stroke-width="2" stroke-linecap="round" stroke-linejoin="round"/>
</svg>
