<svg width="25" height="23" viewBox="0 0 25 23" fill="none" xmlns="http://www.w3.org/2000/svg">
<path d="M6.38297 16.8077H18.6169V18.5769H6.38297V16.8077ZM8.13067 10.6154C7.78501 10.6154 7.44711 10.7192 7.1597 10.9136C6.87229 11.108 6.64828 11.3843 6.516 11.7076C6.38372 12.0309 6.34911 12.3866 6.41655 12.7298C6.48398 13.073 6.65044 13.3882 6.89486 13.6357C7.13928 13.8831 7.45069 14.0516 7.78971 14.1199C8.12873 14.1881 8.48014 14.1531 8.79949 14.0192C9.11884 13.8853 9.3918 13.6585 9.58384 13.3676C9.77588 13.0766 9.87838 12.7346 9.87838 12.3847C9.88072 12.1517 9.83711 11.9205 9.75011 11.7048C9.6631 11.4891 9.53446 11.2931 9.3717 11.1284C9.20894 10.9636 9.01534 10.8334 8.80225 10.7453C8.58915 10.6572 8.36084 10.6131 8.13067 10.6154ZM16.8692 10.6154C16.5235 10.6154 16.1856 10.7192 15.8982 10.9136C15.6108 11.108 15.3868 11.3843 15.2545 11.7076C15.1223 12.0309 15.0876 12.3866 15.1551 12.7298C15.2225 13.073 15.389 13.3882 15.6334 13.6357C15.8778 13.8831 16.1892 14.0516 16.5283 14.1199C16.8673 14.1881 17.2187 14.1531 17.538 14.0192C17.8574 13.8853 18.1303 13.6585 18.3224 13.3676C18.5144 13.0766 18.6169 12.7346 18.6169 12.3847C18.6193 12.1517 18.5756 11.9205 18.4886 11.7048C18.4016 11.4891 18.273 11.2931 18.1102 11.1284C17.9475 10.9636 17.7539 10.8334 17.5408 10.7453C17.3277 10.6572 17.0994 10.6131 16.8692 10.6154Z" fill="#969696"/>
<path d="M23.2143 5.30769H14.6554L16.5054 3.47477C16.6549 3.51566 16.8092 3.53707 16.9643 3.53846C17.3175 3.53846 17.6627 3.4347 17.9564 3.24029C18.25 3.04589 18.4789 2.76957 18.6141 2.44629C18.7492 2.123 18.7846 1.76727 18.7157 1.42407C18.6468 1.08087 18.4767 0.765628 18.227 0.518196C17.9772 0.270765 17.6591 0.102262 17.3127 0.0339961C16.9663 -0.0342701 16.6072 0.000766574 16.2809 0.134675C15.9546 0.268584 15.6757 0.495351 15.4795 0.7863C15.2833 1.07725 15.1786 1.41931 15.1786 1.76923C15.18 1.92292 15.2016 2.07577 15.2429 2.22392L12.1304 5.30769H1.78571C1.31233 5.30839 0.858539 5.49502 0.523806 5.82666C0.189073 6.15831 0.000708482 6.60791 0 7.07692V21.2308C0.000708482 21.6998 0.189073 22.1494 0.523806 22.481C0.858539 22.8127 1.31233 22.9993 1.78571 23H23.2143C23.6877 22.9993 24.1415 22.8127 24.4762 22.481C24.8109 22.1494 24.9993 21.6998 25 21.2308V7.07692C24.9993 6.60791 24.8109 6.15831 24.4762 5.82666C24.1415 5.49502 23.6877 5.30839 23.2143 5.30769ZM1.78571 21.2308V7.07692H23.2143V21.2308H1.78571Z" fill="#969696"/>
</svg>
