<svg width="25" height="23" viewBox="0 0 25 23" fill="none" xmlns="http://www.w3.org/2000/svg">
<path d="M21.429 6.57143L22.5479 4.31524L25 3.28571L22.5479 2.25619L21.429 0L20.3101 2.25619L17.858 3.28571L20.3101 4.31524L21.429 6.57143ZM7.7401 6.57143L8.85902 4.31524L11.3111 3.28571L8.85902 2.25619L7.7401 0L6.62119 2.25619L4.16909 3.28571L6.62119 4.31524L7.7401 6.57143ZM21.429 12.5952L20.3101 14.8514L17.858 15.881L20.3101 16.9105L21.429 19.1667L22.5479 16.9105L25 15.881L22.5479 14.8514L21.429 12.5952ZM18.7031 8.89333L15.3345 5.79381C15.0964 5.58571 14.7988 5.47619 14.4893 5.47619C14.1798 5.47619 13.8822 5.58571 13.6442 5.79381L0.348107 18.0276C0.237759 18.1289 0.150212 18.2493 0.0904793 18.3818C0.0307464 18.5143 0 18.6563 0 18.7998C0 18.9432 0.0307464 19.0852 0.0904793 19.2177C0.150212 19.3502 0.237759 19.4706 0.348107 19.5719L3.71676 22.6714C3.95483 22.8905 4.25241 23 4.5619 23C4.87139 23 5.16897 22.8905 5.40704 22.6824L18.7031 10.4486C19.1673 10.0214 19.1673 9.32048 18.7031 8.89333ZM14.4893 8.12667L16.1677 9.67095L14.775 10.9524L13.0966 9.4081L14.4893 8.12667ZM4.5619 20.3605L2.88353 18.8162L11.4182 10.9524L13.0966 12.4967L4.5619 20.3605Z" fill="#969696"/>
</svg>
