<svg width="47" height="43" viewBox="0 0 47 43" fill="none" xmlns="http://www.w3.org/2000/svg">
<g filter="url(#filter0_d_715_637)">
<path fill-rule="evenodd" clip-rule="evenodd" d="M11 10C11.5523 10 12 10.4477 12 11V29.6667C12 29.9739 12.1384 30.3005 12.4396 30.564C12.745 30.8313 13.1847 31 13.6667 31H36C36.5523 31 37 31.4477 37 32C37 32.5523 36.5523 33 36 33H13.6667C12.7341 33 11.8173 32.6771 11.1225 32.0692C10.4235 31.4575 10 30.5971 10 29.6667V11C10 10.4477 10.4477 10 11 10Z" fill="white"/>
<path fill-rule="evenodd" clip-rule="evenodd" d="M36.5429 15.1602C37.0067 15.4601 37.1396 16.0791 36.8398 16.5429L30.2489 26.7377C29.9615 27.1821 29.3776 27.3257 28.9169 27.0652L19.7657 21.8907L13.8522 31.5232C13.5633 31.9938 12.9475 32.1412 12.4768 31.8522C12.0061 31.5633 11.8588 30.9475 12.1478 30.4768L18.5659 20.0223C18.8475 19.5635 19.4418 19.41 19.9103 19.675L29.0809 24.8604L35.1602 15.4571C35.4601 14.9933 36.0791 14.8604 36.5429 15.1602Z" fill="white"/>
</g>
<defs>
<filter id="filter0_d_715_637" x="0" y="0" width="47.0001" height="43" filterUnits="userSpaceOnUse" color-interpolation-filters="sRGB">
<feFlood flood-opacity="0" result="BackgroundImageFix"/>
<feColorMatrix in="SourceAlpha" type="matrix" values="0 0 0 0 0 0 0 0 0 0 0 0 0 0 0 0 0 0 127 0" result="hardAlpha"/>
<feOffset/>
<feGaussianBlur stdDeviation="5"/>
<feComposite in2="hardAlpha" operator="out"/>
<feColorMatrix type="matrix" values="0 0 0 0 1 0 0 0 0 1 0 0 0 0 1 0 0 0 1 0"/>
<feBlend mode="normal" in2="BackgroundImageFix" result="effect1_dropShadow_715_637"/>
<feBlend mode="normal" in="SourceGraphic" in2="effect1_dropShadow_715_637" result="shape"/>
</filter>
</defs>
</svg>
