<svg width="42" height="44" viewBox="0 0 42 44" fill="none" xmlns="http://www.w3.org/2000/svg">
<g filter="url(#filter0_d_715_657)">
<path fill-rule="evenodd" clip-rule="evenodd" d="M12.4487 19.2439L20.2288 12.2956C20.4504 12.1013 20.7238 12 21 12C21.2762 12 21.5496 12.1013 21.7712 12.2956L21.7735 12.2975L29.5461 19.2394L29.5513 19.2439C29.6884 19.3647 29.8015 19.5178 29.88 19.6943C29.9586 19.8708 30 20.0651 30 20.2628V30.6841C30 31.0461 29.8616 31.3854 29.6276 31.6293C29.3949 31.8718 29.0883 32 28.7778 32H25.3333V23.7367C25.3333 23.1774 25.1205 22.6331 24.7294 22.2255C24.337 21.8166 23.7957 21.5787 23.2222 21.5787H18.7778C18.2042 21.5787 17.663 21.8166 17.2706 22.2255C16.8795 22.6331 16.6667 23.1774 16.6667 23.7367V32H13.2222C12.9117 32 12.6051 31.8718 12.3724 31.6293C12.1384 31.3854 12 31.0461 12 30.6841V20.2626C12 20.0649 12.0414 19.8708 12.12 19.6943C12.1985 19.5178 12.3116 19.3647 12.4487 19.2439ZM17.6545 34C17.6585 34 17.6626 34.0001 17.6667 34.0001C17.6707 34.0001 17.6748 34 17.6788 34H24.3212C24.3252 34 24.3293 34.0001 24.3333 34.0001C24.3374 34.0001 24.3414 34 24.3455 34H28.7778C29.646 34 30.4699 33.6402 31.0707 33.0141C31.6701 32.3894 32 31.5506 32 30.6841V20.2628C32.0001 19.7868 31.9006 19.3153 31.7071 18.8808C31.5141 18.4472 31.2314 18.0593 30.876 17.7456L30.8732 17.7431L23.1006 10.8012L23.0954 10.7967C22.5153 10.2857 21.7732 10 21 10C20.2268 10 19.4847 10.2857 18.9046 10.7967L11.124 17.7456C10.7687 18.0593 10.4859 18.4472 10.2929 18.8808C10.0994 19.3153 9.99992 19.787 10 20.263V30.6841C10 31.5506 10.3299 32.3894 10.9293 33.0141C11.5301 33.6402 12.354 34 13.2222 34H17.6545ZM23.3333 32H18.6667V23.7367C18.6667 23.6818 18.688 23.637 18.7136 23.6103C18.738 23.5849 18.7619 23.5787 18.7778 23.5787H23.2222C23.2381 23.5787 23.262 23.5849 23.2863 23.6103C23.312 23.637 23.3333 23.6818 23.3333 23.7367V32Z" fill="white"/>
</g>
<defs>
<filter id="filter0_d_715_657" x="0" y="0" width="42" height="44.0001" filterUnits="userSpaceOnUse" color-interpolation-filters="sRGB">
<feFlood flood-opacity="0" result="BackgroundImageFix"/>
<feColorMatrix in="SourceAlpha" type="matrix" values="0 0 0 0 0 0 0 0 0 0 0 0 0 0 0 0 0 0 127 0" result="hardAlpha"/>
<feOffset/>
<feGaussianBlur stdDeviation="5"/>
<feComposite in2="hardAlpha" operator="out"/>
<feColorMatrix type="matrix" values="0 0 0 0 1 0 0 0 0 1 0 0 0 0 1 0 0 0 1 0"/>
<feBlend mode="normal" in2="BackgroundImageFix" result="effect1_dropShadow_715_657"/>
<feBlend mode="normal" in="SourceGraphic" in2="effect1_dropShadow_715_657" result="shape"/>
</filter>
</defs>
</svg>
