<svg width="28" height="25" viewBox="0 0 12 16" fill="none" xmlns="http://www.w3.org/2000/svg">
<path d="M2.5 4C2.36739 4 2.24021 4.05268 2.14645 4.14645C2.05268 4.24021 2 4.36739 2 4.5C2 4.63261 2.05268 4.75979 2.14645 4.85355C2.24021 4.94732 2.36739 5 2.5 5H9.5C9.63261 5 9.75979 4.94732 9.85355 4.85355C9.94732 4.75979 10 4.63261 10 4.5C10 4.36739 9.94732 4.24021 9.85355 4.14645C9.75979 4.05268 9.63261 4 9.5 4H2.5ZM2 6.5C2 6.36739 2.05268 6.24021 2.14645 6.14645C2.24021 6.05268 2.36739 6 2.5 6H9.5C9.63261 6 9.75979 6.05268 9.85355 6.14645C9.94732 6.24021 10 6.36739 10 6.5C10 6.63261 9.94732 6.75979 9.85355 6.85355C9.75979 6.94732 9.63261 7 9.5 7H2.5C2.36739 7 2.24021 6.94732 2.14645 6.85355C2.05268 6.75979 2 6.63261 2 6.5ZM2.5 8C2.36739 8 2.24021 8.05268 2.14645 8.14645C2.05268 8.24021 2 8.36739 2 8.5C2 8.63261 2.05268 8.75979 2.14645 8.85355C2.24021 8.94732 2.36739 9 2.5 9H6.5C6.63261 9 6.75979 8.94732 6.85355 8.85355C6.94732 8.75979 7 8.63261 7 8.5C7 8.36739 6.94732 8.24021 6.85355 8.14645C6.75979 8.05268 6.63261 8 6.5 8H2.5ZM0 1.5C0 1.10218 0.158035 0.720644 0.43934 0.43934C0.720644 0.158035 1.10218 0 1.5 0H10.5C10.8978 0 11.2794 0.158035 11.5607 0.43934C11.842 0.720644 12 1.10218 12 1.5V14.5C12 14.8978 11.842 15.2794 11.5607 15.5607C11.2794 15.842 10.8978 16 10.5 16H1.5C1.10218 16 0.720644 15.842 0.43934 15.5607C0.158035 15.2794 0 14.8978 0 14.5V1.5ZM1.5 1C1.36739 1 1.24021 1.05268 1.14645 1.14645C1.05268 1.24021 1 1.36739 1 1.5V14.5C1 14.6326 1.05268 14.7598 1.14645 14.8536C1.24021 14.9473 1.36739 15 1.5 15H10.5C10.6326 15 10.7598 14.9473 10.8536 14.8536C10.9473 14.7598 11 14.6326 11 14.5V1.5C11 1.36739 10.9473 1.24021 10.8536 1.14645C10.7598 1.05268 10.6326 1 10.5 1H1.5Z" fill="#969696"/>
</svg>
