<svg width="45" height="43" viewBox="0 0 45 43" fill="none" xmlns="http://www.w3.org/2000/svg">
<g filter="url(#filter0_d_715_609)">
<path d="M31.429 16.5714L32.5479 14.3152L35 13.2857L32.5479 12.2562L31.429 10L30.3101 12.2562L27.858 13.2857L30.3101 14.3152L31.429 16.5714ZM17.7401 16.5714L18.859 14.3152L21.3111 13.2857L18.859 12.2562L17.7401 10L16.6212 12.2562L14.1691 13.2857L16.6212 14.3152L17.7401 16.5714ZM31.429 22.5952L30.3101 24.8514L27.858 25.881L30.3101 26.9105L31.429 29.1667L32.5479 26.9105L35 25.881L32.5479 24.8514L31.429 22.5952ZM28.7031 18.8933L25.3345 15.7938C25.0964 15.5857 24.7988 15.4762 24.4893 15.4762C24.1798 15.4762 23.8822 15.5857 23.6442 15.7938L10.3481 28.0276C10.2378 28.1289 10.1502 28.2493 10.0905 28.3818C10.0307 28.5143 10 28.6563 10 28.7998C10 28.9432 10.0307 29.0852 10.0905 29.2177C10.1502 29.3502 10.2378 29.4706 10.3481 29.5719L13.7168 32.6714C13.9548 32.8905 14.2524 33 14.5619 33C14.8714 33 15.169 32.8905 15.407 32.6824L28.7031 20.4486C29.1673 20.0214 29.1673 19.3205 28.7031 18.8933ZM24.4893 18.1267L26.1677 19.671L24.775 20.9524L23.0966 19.4081L24.4893 18.1267ZM14.5619 30.3605L12.8835 28.8162L21.4182 20.9524L23.0966 22.4967L14.5619 30.3605Z" fill="white"/>
</g>
<defs>
<filter id="filter0_d_715_609" x="0" y="0" width="45" height="43" filterUnits="userSpaceOnUse" color-interpolation-filters="sRGB">
<feFlood flood-opacity="0" result="BackgroundImageFix"/>
<feColorMatrix in="SourceAlpha" type="matrix" values="0 0 0 0 0 0 0 0 0 0 0 0 0 0 0 0 0 0 127 0" result="hardAlpha"/>
<feOffset/>
<feGaussianBlur stdDeviation="5"/>
<feComposite in2="hardAlpha" operator="out"/>
<feColorMatrix type="matrix" values="0 0 0 0 1 0 0 0 0 1 0 0 0 0 1 0 0 0 1 0"/>
<feBlend mode="normal" in2="BackgroundImageFix" result="effect1_dropShadow_715_609"/>
<feBlend mode="normal" in="SourceGraphic" in2="effect1_dropShadow_715_609" result="shape"/>
</filter>
</defs>
</svg>
