<svg width="34" height="33" viewBox="0 0 34 33" fill="none" xmlns="http://www.w3.org/2000/svg">
<path d="M10.4062 31.9895H22.7396M5.78125 27.3645H27.3646M1.15625 22.7395H31.9896" stroke="white" stroke-width="1.5" stroke-linecap="round" stroke-linejoin="round"/>
<path d="M2.3125 16.5729C2.3125 12.7908 3.81493 9.16363 6.48928 6.48928C9.16363 3.81493 12.7908 2.3125 16.5729 2.3125V0C7.42004 0 0 7.42004 0 16.5729H2.3125ZM21.9687 20.0417C19.6177 20.0417 17.363 19.1077 15.7005 17.4453C14.0381 15.7829 13.1042 13.5281 13.1042 11.1771H10.7917C10.7917 14.1414 11.9692 16.9844 14.0654 19.0805C16.1615 21.1766 19.0044 22.3542 21.9687 22.3542V20.0417ZM29.5615 15.7543C28.7726 17.0626 27.659 18.1449 26.3287 18.8961C24.9984 19.6473 23.4965 20.0419 21.9687 20.0417V22.3542C23.8949 22.3547 25.7885 21.8575 27.4659 20.9108C29.1433 19.964 30.5475 18.5999 31.5425 16.9506L29.5615 15.7543ZM13.1042 11.1771C13.1039 9.64933 13.4986 8.14745 14.2498 6.81714C15.001 5.48682 16.0832 4.37323 17.3915 3.58437L16.1952 1.60487C14.5462 2.59969 13.1822 4.00372 12.2354 5.68082C11.2887 7.35793 10.7914 9.25121 10.7917 11.1771H13.1042ZM30.8333 16.5729C30.8366 18.536 30.4324 20.4783 29.6462 22.2771L31.766 23.2021C32.654 21.1702 33.1458 18.927 33.1458 16.5729H30.8333ZM3.49958 22.2771C2.71341 20.4783 2.30919 18.536 2.3125 16.5729H0C0 18.927 0.491792 21.1702 1.37979 23.2021L3.49958 22.2771ZM16.5729 2.3125C16.4954 2.31101 16.419 2.29416 16.3481 2.26294C16.2772 2.23171 16.2132 2.18672 16.1598 2.13058C16.0948 2.0653 16.0507 1.98209 16.0333 1.89162C16.0272 1.84383 16.0302 1.70508 16.1952 1.60487L17.3915 3.58437C18.167 3.11571 18.4167 2.257 18.3258 1.58175C18.2302 0.880292 17.6783 0 16.5729 0V2.3125ZM31.5425 16.9506C31.4407 17.1156 31.302 17.1187 31.2542 17.1125C31.1637 17.0951 31.0805 17.0511 31.0152 16.9861C30.9591 16.9327 30.9141 16.8686 30.8829 16.7977C30.8517 16.7268 30.8348 16.6504 30.8333 16.5729H33.1458C33.1458 15.4675 32.2655 14.9156 31.5641 14.82C30.8888 14.7291 30.0301 14.9788 29.5615 15.7543L31.5425 16.9506Z" fill="white"/>
<path d="M28.7521 1.62963C28.6976 1.48995 28.6023 1.36996 28.4785 1.28537C28.3547 1.20077 28.2083 1.15552 28.0583 1.15552C27.9084 1.15552 27.762 1.20077 27.6382 1.28537C27.5144 1.36996 27.419 1.48995 27.3646 1.62963L26.7017 3.31775C26.6648 3.41336 26.6085 3.50027 26.5363 3.57298C26.4642 3.6457 26.3777 3.70263 26.2823 3.74017L24.6004 4.40617C24.4611 4.46165 24.3416 4.55764 24.2575 4.68173C24.1734 4.80582 24.1284 4.95231 24.1284 5.10223C24.1284 5.25216 24.1734 5.39864 24.2575 5.52273C24.3416 5.64682 24.4611 5.74282 24.6004 5.7983L26.2823 6.4643C26.3775 6.50167 26.4639 6.55836 26.5361 6.6308C26.6083 6.70324 26.6646 6.78985 26.7017 6.88517L27.3646 8.57175C27.6143 9.20384 28.5054 9.20384 28.7521 8.57175L29.415 6.88363C29.4522 6.78816 29.5088 6.70146 29.5813 6.62901C29.6537 6.55656 29.7404 6.49995 29.8359 6.46275L31.5178 5.79675C31.6571 5.74127 31.7766 5.64528 31.8607 5.52119C31.9448 5.3971 31.9898 5.25062 31.9898 5.10069C31.9898 4.95076 31.9448 4.80428 31.8607 4.68019C31.7766 4.5561 31.6571 4.46011 31.5178 4.40463L29.8359 3.73863C29.7403 3.70126 29.6535 3.64441 29.581 3.57169C29.5085 3.49897 29.452 3.41196 29.415 3.31621L28.7521 1.62963ZM22.7905 10.6068C22.736 10.4671 22.6406 10.3471 22.5168 10.2625C22.3931 10.1779 22.2466 10.1326 22.0967 10.1326C21.9468 10.1326 21.8003 10.1779 21.6766 10.2625C21.5528 10.3471 21.4574 10.4671 21.403 10.6068L21.1609 11.2219C21.1239 11.3172 21.0675 11.4038 20.9953 11.4762C20.9232 11.5487 20.8368 11.6054 20.7416 11.6428L20.128 11.8863C19.9887 11.9418 19.8693 12.0378 19.7851 12.1619C19.701 12.286 19.656 12.4325 19.656 12.5824C19.656 12.7323 19.701 12.8788 19.7851 13.0029C19.8693 13.127 19.9887 13.223 20.128 13.2785L20.7416 13.5205C20.9343 13.5976 21.0854 13.7487 21.1609 13.9429L21.403 14.558C21.6512 15.1901 22.5422 15.1901 22.7905 14.558L23.0325 13.9414C23.0695 13.8461 23.1259 13.7594 23.1981 13.687C23.2702 13.6146 23.3566 13.5579 23.4518 13.5205L24.0654 13.2785C24.2047 13.223 24.3241 13.127 24.4083 13.0029C24.4924 12.8788 24.5374 12.7323 24.5374 12.5824C24.5374 12.4325 24.4924 12.286 24.4083 12.1619C24.3241 12.0378 24.2047 11.9418 24.0654 11.8863L23.4518 11.6428C23.3566 11.6054 23.2702 11.5487 23.1981 11.4762C23.1259 11.4038 23.0695 11.3172 23.0325 11.2219L22.7905 10.6068Z" stroke="white"/>
</svg>
