<svg width="25" height="25" viewBox="0 0 25 25" fill="none" xmlns="http://www.w3.org/2000/svg">
<path d="M0 8.25V2.75C0 1.99375 0.2695 1.34658 0.8085 0.8085C1.3475 0.270417 1.99467 0.000916667 2.75 0H22C22.7563 0 23.4039 0.2695 23.9429 0.8085C24.4819 1.3475 24.7509 1.99467 24.75 2.75V8.25H0ZM2.75 24.75C1.99375 24.75 1.34658 24.481 0.8085 23.9429C0.270417 23.4048 0.000916667 22.7572 0 22V9.625H24.75V22C24.75 22.7563 24.481 23.4039 23.9429 23.9429C23.4048 24.4819 22.7572 24.7509 22 24.75H2.75ZM6.875 5.5C7.26458 5.5 7.59138 5.368 7.85538 5.104C8.11938 4.84 8.25092 4.51367 8.25 4.125C8.24908 3.73633 8.11708 3.41 7.854 3.146C7.59092 2.882 7.26458 2.75 6.875 2.75C6.48542 2.75 6.15908 2.882 5.896 3.146C5.63292 3.41 5.50092 3.73633 5.5 4.125C5.49908 4.51367 5.63108 4.84046 5.896 5.10537C6.16092 5.37029 6.48725 5.50183 6.875 5.5ZM9.625 15.125H15.125V12.375H9.625V15.125ZM12.375 5.5C12.7646 5.5 13.0914 5.368 13.3554 5.104C13.6194 4.84 13.7509 4.51367 13.75 4.125C13.7491 3.73633 13.6171 3.41 13.354 3.146C13.0909 2.882 12.7646 2.75 12.375 2.75C11.9854 2.75 11.6591 2.882 11.396 3.146C11.1329 3.41 11.0009 3.73633 11 4.125C10.9991 4.51367 11.1311 4.84046 11.396 5.10537C11.6609 5.37029 11.9872 5.50183 12.375 5.5ZM17.875 5.5C18.2646 5.5 18.5914 5.368 18.8554 5.104C19.1194 4.84 19.2509 4.51367 19.25 4.125C19.2491 3.73633 19.1171 3.41 18.854 3.146C18.5909 2.882 18.2646 2.75 17.875 2.75C17.4854 2.75 17.1591 2.882 16.896 3.146C16.6329 3.41 16.5009 3.73633 16.5 4.125C16.4991 4.51367 16.6311 4.84046 16.896 5.10537C17.1609 5.37029 17.4872 5.50183 17.875 5.5Z" fill="white"/>
</svg>
