<svg width="83" height="29" viewBox="0 0 83 29" fill="none" xmlns="http://www.w3.org/2000/svg">
<rect y="5" width="83" height="20" rx="10" fill="#454839"/>
<path d="M10.2155 14.584C10.2155 14.872 10.3355 15.092 10.5755 15.244C10.8235 15.396 11.2715 15.496 11.9195 15.544C12.6155 15.6 13.1435 15.768 13.5035 16.048C13.8715 16.32 14.0555 16.72 14.0555 17.248V17.32C14.0555 17.608 13.9955 17.868 13.8755 18.1C13.7635 18.324 13.6035 18.516 13.3955 18.676C13.1955 18.836 12.9475 18.956 12.6515 19.036C12.3635 19.124 12.0475 19.168 11.7035 19.168C11.2395 19.168 10.8395 19.108 10.5035 18.988C10.1755 18.86 9.89955 18.696 9.67555 18.496C9.45955 18.288 9.29555 18.056 9.18355 17.8C9.07155 17.536 9.00755 17.272 8.99155 17.008L9.87955 16.792C9.91955 17.248 10.0955 17.616 10.4075 17.896C10.7195 18.168 11.1355 18.304 11.6555 18.304C12.0955 18.304 12.4475 18.22 12.7115 18.052C12.9835 17.876 13.1195 17.632 13.1195 17.32C13.1195 16.984 12.9875 16.744 12.7235 16.6C12.4595 16.456 12.0315 16.364 11.4395 16.324C10.7515 16.276 10.2235 16.116 9.85555 15.844C9.48755 15.572 9.30355 15.176 9.30355 14.656V14.584C9.30355 14.304 9.36355 14.06 9.48355 13.852C9.60355 13.636 9.76355 13.456 9.96355 13.312C10.1715 13.168 10.4035 13.06 10.6595 12.988C10.9155 12.916 11.1835 12.88 11.4635 12.88C11.8555 12.88 12.1995 12.936 12.4955 13.048C12.7915 13.152 13.0395 13.292 13.2395 13.468C13.4395 13.636 13.5915 13.832 13.6955 14.056C13.8075 14.28 13.8795 14.504 13.9115 14.728L13.0235 14.944C12.9835 14.56 12.8275 14.26 12.5555 14.044C12.2915 13.828 11.9435 13.72 11.5115 13.72C11.3435 13.72 11.1795 13.74 11.0195 13.78C10.8675 13.812 10.7315 13.864 10.6115 13.936C10.4915 14.008 10.3955 14.1 10.3235 14.212C10.2515 14.316 10.2155 14.44 10.2155 14.584ZM17.2632 19H16.3272V10.6H17.2632V14.128H17.4072C17.5912 13.744 17.8472 13.44 18.1752 13.216C18.5112 12.992 18.9192 12.88 19.3992 12.88C20.0472 12.88 20.5712 13.096 20.9712 13.528C21.3792 13.952 21.5832 14.592 21.5832 15.448V19H20.6472V15.64C20.6472 15.016 20.5072 14.548 20.2272 14.236C19.9472 13.924 19.5672 13.768 19.0872 13.768C18.5192 13.768 18.0712 13.964 17.7432 14.356C17.4232 14.74 17.2632 15.256 17.2632 15.904V19ZM29.2909 16.096C29.2909 16.592 29.2069 17.032 29.0389 17.416C28.8789 17.792 28.6629 18.112 28.3909 18.376C28.1189 18.632 27.7989 18.828 27.4309 18.964C27.0709 19.1 26.6949 19.168 26.3029 19.168C25.9029 19.168 25.5229 19.1 25.1629 18.964C24.8029 18.828 24.4869 18.632 24.2149 18.376C23.9429 18.112 23.7229 17.792 23.5549 17.416C23.3949 17.032 23.3149 16.592 23.3149 16.096V15.952C23.3149 15.464 23.3949 15.032 23.5549 14.656C23.7229 14.272 23.9429 13.948 24.2149 13.684C24.4949 13.42 24.8149 13.22 25.1749 13.084C25.5349 12.948 25.9109 12.88 26.3029 12.88C26.6949 12.88 27.0709 12.948 27.4309 13.084C27.7909 13.22 28.1069 13.42 28.3789 13.684C28.6589 13.948 28.8789 14.272 29.0389 14.656C29.2069 15.032 29.2909 15.464 29.2909 15.952V16.096ZM26.3029 18.28C26.5909 18.28 26.8549 18.232 27.0949 18.136C27.3429 18.032 27.5589 17.884 27.7429 17.692C27.9269 17.5 28.0709 17.272 28.1749 17.008C28.2789 16.736 28.3309 16.432 28.3309 16.096V15.952C28.3309 15.632 28.2789 15.34 28.1749 15.076C28.0709 14.804 27.9269 14.572 27.7429 14.38C27.5589 14.188 27.3429 14.04 27.0949 13.936C26.8469 13.824 26.5829 13.768 26.3029 13.768C26.0229 13.768 25.7589 13.824 25.5109 13.936C25.2629 14.04 25.0469 14.188 24.8629 14.38C24.6789 14.572 24.5349 14.804 24.4309 15.076C24.3269 15.34 24.2749 15.632 24.2749 15.952V16.096C24.2749 16.432 24.3269 16.736 24.4309 17.008C24.5349 17.272 24.6789 17.5 24.8629 17.692C25.0469 17.884 25.2589 18.032 25.4989 18.136C25.7469 18.232 26.0149 18.28 26.3029 18.28ZM36.1705 19H34.4425L33.7225 13.48H33.5785L32.8585 19H31.1305L30.1945 13.048H31.1545L31.9465 18.568H32.0905L32.7865 13.048H34.5145L35.2105 18.568H35.3545L36.1465 13.048H37.1065L36.1705 19ZM51.4418 19H50.5058V14.728C50.5058 14.448 50.4418 14.22 50.3138 14.044C50.1858 13.86 49.9818 13.768 49.7018 13.768C49.4378 13.768 49.2218 13.868 49.0538 14.068C48.8938 14.26 48.8138 14.56 48.8138 14.968V19H47.8778V14.68C47.8778 14.416 47.8058 14.2 47.6618 14.032C47.5178 13.856 47.3258 13.768 47.0858 13.768C46.7978 13.768 46.5738 13.872 46.4138 14.08C46.2618 14.288 46.1858 14.56 46.1858 14.896V19H45.2498V13.048H46.1858V13.696H46.3298C46.4338 13.416 46.5858 13.212 46.7858 13.084C46.9858 12.948 47.2218 12.88 47.4938 12.88C47.7818 12.88 48.0178 12.956 48.2018 13.108C48.3938 13.26 48.5258 13.456 48.5978 13.696H48.7418C49.0138 13.152 49.4458 12.88 50.0378 12.88C50.4858 12.88 50.8298 13.024 51.0698 13.312C51.3178 13.592 51.4418 13.96 51.4418 14.416V19ZM58.6815 16.096C58.6815 16.592 58.5975 17.032 58.4295 17.416C58.2695 17.792 58.0535 18.112 57.7815 18.376C57.5095 18.632 57.1895 18.828 56.8215 18.964C56.4615 19.1 56.0855 19.168 55.6935 19.168C55.2935 19.168 54.9135 19.1 54.5535 18.964C54.1935 18.828 53.8775 18.632 53.6055 18.376C53.3335 18.112 53.1135 17.792 52.9455 17.416C52.7855 17.032 52.7055 16.592 52.7055 16.096V15.952C52.7055 15.464 52.7855 15.032 52.9455 14.656C53.1135 14.272 53.3335 13.948 53.6055 13.684C53.8855 13.42 54.2055 13.22 54.5655 13.084C54.9255 12.948 55.3015 12.88 55.6935 12.88C56.0855 12.88 56.4615 12.948 56.8215 13.084C57.1815 13.22 57.4975 13.42 57.7695 13.684C58.0495 13.948 58.2695 14.272 58.4295 14.656C58.5975 15.032 58.6815 15.464 58.6815 15.952V16.096ZM55.6935 18.28C55.9815 18.28 56.2455 18.232 56.4855 18.136C56.7335 18.032 56.9495 17.884 57.1335 17.692C57.3175 17.5 57.4615 17.272 57.5655 17.008C57.6695 16.736 57.7215 16.432 57.7215 16.096V15.952C57.7215 15.632 57.6695 15.34 57.5655 15.076C57.4615 14.804 57.3175 14.572 57.1335 14.38C56.9495 14.188 56.7335 14.04 56.4855 13.936C56.2375 13.824 55.9735 13.768 55.6935 13.768C55.4135 13.768 55.1495 13.824 54.9015 13.936C54.6535 14.04 54.4375 14.188 54.2535 14.38C54.0695 14.572 53.9255 14.804 53.8215 15.076C53.7175 15.34 53.6655 15.632 53.6655 15.952V16.096C53.6655 16.432 53.7175 16.736 53.8215 17.008C53.9255 17.272 54.0695 17.5 54.2535 17.692C54.4375 17.884 54.6495 18.032 54.8895 18.136C55.1375 18.232 55.4055 18.28 55.6935 18.28ZM60.0771 13.048H62.2371V13.84H62.3811C62.5331 13.512 62.7491 13.272 63.0291 13.12C63.3091 12.96 63.6291 12.88 63.9891 12.88C64.5891 12.88 65.0731 13.076 65.4411 13.468C65.8091 13.86 66.0051 14.432 66.0291 15.184L65.0451 15.328C65.0451 14.776 64.9131 14.38 64.6491 14.14C64.3851 13.892 64.0611 13.768 63.6771 13.768C63.4291 13.768 63.2131 13.816 63.0291 13.912C62.8531 14.008 62.7051 14.14 62.5851 14.308C62.4651 14.476 62.3771 14.672 62.3211 14.896C62.2651 15.12 62.2371 15.36 62.2371 15.616V18.136H63.7491V19H59.9331V18.136H61.3011V13.912H60.0771V13.048ZM68.4448 16.312C68.4688 16.904 68.6528 17.38 68.9968 17.74C69.3408 18.1 69.8208 18.28 70.4368 18.28C70.7168 18.28 70.9608 18.248 71.1688 18.184C71.3768 18.12 71.5528 18.032 71.6968 17.92C71.8488 17.808 71.9688 17.68 72.0568 17.536C72.1528 17.384 72.2288 17.224 72.2848 17.056L73.1728 17.296C73.0048 17.848 72.6928 18.3 72.2368 18.652C71.7888 18.996 71.1808 19.168 70.4128 19.168C69.9888 19.168 69.5968 19.096 69.2368 18.952C68.8848 18.8 68.5808 18.588 68.3248 18.316C68.0688 18.044 67.8688 17.72 67.7248 17.344C67.5808 16.968 67.5088 16.552 67.5088 16.096V15.808C67.5088 15.392 67.5808 15.004 67.7248 14.644C67.8768 14.284 68.0848 13.976 68.3488 13.72C68.6128 13.456 68.9208 13.252 69.2728 13.108C69.6328 12.956 70.0208 12.88 70.4368 12.88C70.9248 12.88 71.3448 12.972 71.6968 13.156C72.0568 13.332 72.3488 13.552 72.5728 13.816C72.8048 14.08 72.9728 14.368 73.0768 14.68C73.1888 14.992 73.2448 15.28 73.2448 15.544V16.312H68.4448ZM70.4368 13.768C70.1728 13.768 69.9248 13.812 69.6928 13.9C69.4688 13.98 69.2688 14.096 69.0928 14.248C68.9248 14.4 68.7848 14.58 68.6728 14.788C68.5688 14.988 68.5008 15.208 68.4688 15.448H72.3088C72.2928 15.192 72.2288 14.96 72.1168 14.752C72.0128 14.544 71.8728 14.368 71.6968 14.224C71.5288 14.08 71.3328 13.968 71.1088 13.888C70.8928 13.808 70.6688 13.768 70.4368 13.768Z" fill="#EBFF57"/>
</svg>
