<svg width="37" height="37" viewBox="0 0 37 37" fill="none" xmlns="http://www.w3.org/2000/svg">
<path d="M3.03167 18.51H1M36 18.51H33.9883M18.51 3.03167V1M18.51 36V33.9883M7.55833 7.55833L6.12667 6.12667M30.8733 30.8733L29.44 29.44M29.4417 7.55833L30.8717 6.12667M6.12667 30.8733L7.56 29.44M18.5 28.3083C19.788 28.3083 21.0635 28.0546 22.2535 27.5617C23.4435 27.0688 24.5248 26.3463 25.4355 25.4355C26.3463 24.5248 27.0688 23.4435 27.5617 22.2535C28.0546 21.0635 28.3083 19.788 28.3083 18.5C28.3083 17.212 28.0546 15.9365 27.5617 14.7465C27.0688 13.5565 26.3463 12.4752 25.4355 11.5645C24.5248 10.6537 23.4435 9.9312 22.2535 9.43828C21.0635 8.94537 19.788 8.69167 18.5 8.69167C15.8987 8.69167 13.4039 9.72504 11.5645 11.5645C9.72504 13.4039 8.69167 15.8987 8.69167 18.5C8.69167 21.1013 9.72504 23.5961 11.5645 25.4355C13.4039 27.275 15.8987 28.3083 18.5 28.3083Z" stroke="white" stroke-width="2" stroke-linecap="round" stroke-linejoin="round"/>
</svg>
