<svg width="36" height="36" viewBox="0 0 36 36" fill="none" xmlns="http://www.w3.org/2000/svg">
<path d="M11 34.3333H24.3333M6 29.3333H29.3333M1 24.3333H34.3333" stroke="white" stroke-width="1.5" stroke-linecap="round" stroke-linejoin="round"/>
<path d="M17.6667 7.66675C15.7423 7.66665 13.8586 8.20137 12.2419 9.20674C10.6252 10.2121 9.34405 11.6454 8.55227 13.3346C7.76049 15.0239 7.49169 16.8972 7.77814 18.73C8.06459 20.5627 8.89412 22.2768 10.1672 23.6667H25.1663C26.4394 22.2768 27.2689 20.5627 27.5554 18.73C27.8418 16.8972 27.573 15.0239 26.7812 13.3346C25.9894 11.6454 24.7083 10.2121 23.0916 9.20674C21.4749 8.20137 19.5912 7.66665 17.6667 7.66675Z" stroke="white" stroke-width="2"/>
<path d="M17.6667 1V2.66667M34.3333 17.6667H32.6667M2.66667 17.6667H1M29.45 5.88333L28.7967 6.53833M6.53667 6.53667L5.88167 5.88167" stroke="white" stroke-width="2" stroke-linecap="round"/>
</svg>
