<svg width="30" height="30" viewBox="0 0 30 30" fill="none" xmlns="http://www.w3.org/2000/svg">
<circle cx="15" cy="15" r="15" fill="#1E1E1E"/>
<path d="M9.00251 10.998C9.00278 10.1775 9.17133 9.36581 9.49773 8.61306C9.82413 7.86031 10.3015 7.18251 10.9002 6.62153C11.4989 6.06056 12.2063 5.62835 12.9787 5.35161C13.7511 5.07487 14.5721 4.95948 15.3908 5.01258C16.2096 5.06568 17.0087 5.28613 17.7389 5.66032C18.4691 6.03451 19.1147 6.55448 19.636 7.18808C20.1573 7.82169 20.543 8.55547 20.7695 9.34408C20.9959 10.1327 21.0582 10.9593 20.9525 11.773C22.1071 12.4247 23.0133 13.4405 23.5295 14.6617C24.0458 15.8829 24.143 17.2407 23.806 18.523C23.469 19.8053 22.7168 20.9399 21.6668 21.7495C20.6169 22.5591 19.3283 22.9981 18.0025 22.998H16.0025V25.998H14.0025V22.998H11.5025C10.2487 22.9985 9.0324 22.5707 8.05504 21.7854C7.07768 21.0001 6.39797 19.9045 6.12852 18.68C5.85907 17.4555 6.01607 16.1757 6.57349 15.0527C7.13092 13.9296 8.05531 13.0308 9.19351 12.505C9.06625 12.0128 9.00207 11.5064 9.00251 10.998ZM10.0125 14.33C9.29385 14.6697 8.71217 15.2439 8.36307 15.9581C8.01398 16.6722 7.91824 17.4839 8.09159 18.2597C8.26495 19.0355 8.69708 19.7292 9.31696 20.2269C9.93684 20.7245 10.7076 20.9964 11.5025 20.998H18.0025C18.9358 20.999 19.84 20.6736 20.5587 20.0781C21.2773 19.4827 21.7651 18.6548 21.9377 17.7376C22.1103 16.8204 21.9567 15.8718 21.5036 15.0559C21.0505 14.24 20.3263 13.6082 19.4565 13.27L18.6155 12.942C18.7925 12.302 19.0025 11.67 19.0025 10.998C19.0025 10.3162 18.8282 9.64564 18.4962 9.05012C18.1642 8.4546 17.6854 7.95383 17.1054 7.59538C16.5254 7.23692 15.8634 7.03267 15.1823 7.00202C14.5012 6.97137 13.8235 7.11535 13.2137 7.42027C12.6038 7.72519 12.082 8.18094 11.6979 8.74424C11.3137 9.30754 11.0799 9.95969 11.0187 10.6388C10.9574 11.3178 11.0708 12.0013 11.348 12.6242C11.6252 13.2471 12.057 13.7889 12.6025 14.198L11.4025 15.798C10.8595 15.3908 10.3895 14.8944 10.0125 14.33Z" fill="#EBFF57"/>
</svg>
