<svg width="27" height="24" viewBox="0 0 27 24" fill="none" xmlns="http://www.w3.org/2000/svg">
<path d="M8 24V21.3333H2.66667C1.93333 21.3333 1.30578 21.0724 0.784 20.5507C0.262222 20.0289 0.000888889 19.4009 0 18.6667V2.66667C0 1.93333 0.261333 1.30578 0.784 0.784C1.30667 0.262222 1.93422 0.000888889 2.66667 0H24C24.7333 0 25.3613 0.261333 25.884 0.784C26.4067 1.30667 26.6676 1.93422 26.6667 2.66667V18.6667C26.6667 19.4 26.4058 20.028 25.884 20.5507C25.3622 21.0733 24.7342 21.3342 24 21.3333H18.6667V24H8ZM2.66667 18.6667H24V2.66667H2.66667V18.6667Z" fill="white"/>
</svg>
