<svg width="24" height="27" viewBox="0 0 24 27" fill="none" xmlns="http://www.w3.org/2000/svg">
<path fill-rule="evenodd" clip-rule="evenodd" d="M23.2422 8.07292H0.00775003C0.042625 4.66808 0.254458 2.77192 1.51383 1.51383C3.02637 -2.38419e-07 5.46246 0 10.3333 0H12.9167C17.7875 0 20.2236 -2.38419e-07 21.7362 1.51383C22.9955 2.77192 23.2074 4.66808 23.2422 8.07292ZM3.55208 4.52083C3.55208 4.2639 3.65415 4.0175 3.83582 3.83582C4.0175 3.65415 4.2639 3.55208 4.52083 3.55208H8.39583C8.65276 3.55208 8.89917 3.65415 9.08084 3.83582C9.26252 4.0175 9.36458 4.2639 9.36458 4.52083C9.36458 4.77776 9.26252 5.02417 9.08084 5.20584C8.89917 5.38752 8.65276 5.48958 8.39583 5.48958H4.52083C4.2639 5.48958 4.0175 5.38752 3.83582 5.20584C3.65415 5.02417 3.55208 4.77776 3.55208 4.52083ZM14.8542 5.8125C15.1967 5.8125 15.5253 5.67641 15.7675 5.43418C16.0097 5.19195 16.1458 4.8634 16.1458 4.52083C16.1458 4.17826 16.0097 3.84972 15.7675 3.60749C15.5253 3.36525 15.1967 3.22917 14.8542 3.22917C14.5116 3.22917 14.1831 3.36525 13.9408 3.60749C13.6986 3.84972 13.5625 4.17826 13.5625 4.52083C13.5625 4.8634 13.6986 5.19195 13.9408 5.43418C14.1831 5.67641 14.5116 5.8125 14.8542 5.8125ZM20.0208 4.52083C20.0208 4.8634 19.8847 5.19195 19.6425 5.43418C19.4003 5.67641 19.0717 5.8125 18.7292 5.8125C18.3866 5.8125 18.0581 5.67641 17.8158 5.43418C17.5736 5.19195 17.4375 4.8634 17.4375 4.52083C17.4375 4.17826 17.5736 3.84972 17.8158 3.60749C18.0581 3.36525 18.3866 3.22917 18.7292 3.22917C19.0717 3.22917 19.4003 3.36525 19.6425 3.60749C19.8847 3.84972 20.0208 4.17826 20.0208 4.52083Z" fill="white"/>
<path d="M8.71875 16.7917C8.71875 16.0209 9.02494 15.2817 9.56997 14.7366C10.115 14.1916 10.8542 13.8854 11.625 13.8854C12.3958 13.8854 13.135 14.1916 13.68 14.7366C14.2251 15.2817 14.5312 16.0209 14.5312 16.7917C14.5312 17.5625 14.2251 18.3017 13.68 18.8467C13.135 19.3917 12.3958 19.6979 11.625 19.6979C10.8542 19.6979 10.115 19.3917 9.56997 18.8467C9.02494 18.3017 8.71875 17.5625 8.71875 16.7917Z" fill="white"/>
<path fill-rule="evenodd" clip-rule="evenodd" d="M0 10.0104H23.25V14.2083C23.25 19.0792 23.25 21.5153 21.7362 23.0278C21.3399 23.4218 20.8656 23.7285 20.3438 23.9281V25.8333C20.3438 26.0903 20.2417 26.3367 20.06 26.5183C19.8783 26.7 19.6319 26.8021 19.375 26.8021C19.1181 26.8021 18.8717 26.7 18.69 26.5183C18.5083 26.3367 18.4062 26.0903 18.4062 25.8333V24.375C17.0242 24.5417 15.2494 24.5417 12.9167 24.5417H10.3333C8.00058 24.5417 6.22583 24.5417 4.84375 24.375V25.8333C4.84375 26.0903 4.74169 26.3367 4.56001 26.5183C4.37833 26.7 4.13193 26.8021 3.875 26.8021C3.61807 26.8021 3.37167 26.7 3.18999 26.5183C3.00831 26.3367 2.90625 26.0903 2.90625 25.8333V23.9281C2.38438 23.7285 1.91007 23.4218 1.51383 23.0278C-2.38419e-07 21.5153 0 19.0792 0 14.2083V10.0104ZM11.625 11.9479C10.3404 11.9479 9.10833 12.4582 8.19995 13.3666C7.29157 14.275 6.78125 15.507 6.78125 16.7917C6.78125 18.0763 7.29157 19.3083 8.19995 20.2167C9.10833 21.1251 10.3404 21.6354 11.625 21.6354C12.9096 21.6354 14.1417 21.1251 15.05 20.2167C15.9584 19.3083 16.4688 18.0763 16.4688 16.7917C16.4688 15.507 15.9584 14.275 15.05 13.3666C14.1417 12.4582 12.9096 11.9479 11.625 11.9479Z" fill="white"/>
</svg>
